# xmcd
#
# Track frame offsets: 
#        150
#        21000
#        39492
#        60760
#        82427
#        102437
#        122690
#        144320
#        163690
#        183295
#
# Disc length: 2692 seconds
#
# Revision: 2
# Processed by: cddbd v1.5.2PL0 Copyright (c) Steve Scherf et al.
# Submitted via: ExactAudioCopy v1.3
#
DISCID=7d0a820a
DTITLE=The Funk Club - Funky And Then Some
DYEAR=1989
DGENRE=Funk
TTITLE0=Sexy Lady
TTITLE1=Go Funk Club
TTITLE2=Girly, Girl
TTITLE3=We Rocked
TTITLE4=Give Love A Chance
TTITLE5=Funky And Then Some
TTITLE6=Precious You Are
TTITLE7=Don't Even Try It
TTITLE8=I Need Your Love
TTITLE9=You Love
EXTD=YEAR: 1989
EXTT0=
EXTT1=
EXTT2=
EXTT3=
EXTT4=
EXTT5=
EXTT6=
EXTT7=
EXTT8=
EXTT9=
PLAYORDER=
